{"glyphs":{"0":{"ha":753,"x_min":47,"x_max":706,"o":"m 706 624 l 706 307 q 609 74 706 171 q 376 -22 513 -22 q 144 74 240 -22 q 47 307 47 171 l 47 624 q 144 854 47 760 q 376 949 240 949 q 609 854 513 949 q 706 624 706 760 m 271 618 l 271 304 q 302 228 271 258 q 379 197 333 197 q 456 227 426 197 q 485 304 485 257 l 485 618 q 454 697 485 664 q 378 729 424 729 q 301 697 332 729 q 271 618 271 664 z "},"1":{"ha":446,"x_min":22,"x_max":376,"o":"m 149 707 l 22 707 l 22 926 l 376 926 l 376 0 l 149 0 l 149 707 z "},"2":{"ha":788,"x_min":22,"x_max":742,"o":"m 521 328 q 381 224 479 297 l 742 224 l 742 0 l 33 0 l 33 185 q 388 496 131 264 q 446 557 432 535 q 467 635 467 589 q 433 704 467 675 q 360 733 400 733 q 151 606 254 733 q 22 776 72 706 q 182 902 88 856 q 376 949 276 949 q 613 857 519 949 q 707 622 707 765 q 654 457 707 532 q 521 328 613 397 z "},"3":{"ha":801,"x_min":38,"x_max":757,"o":"m 397 468 q 294 425 338 468 q 186 535 250 471 q 371 718 294 636 l 71 718 l 71 926 l 690 926 l 690 806 l 496 611 q 684 526 611 608 q 757 328 757 444 q 651 75 757 172 q 388 -22 544 -22 q 38 139 168 -22 q 179 279 125 221 q 371 182 269 182 q 487 222 442 182 q 532 331 532 261 q 492 427 532 386 q 397 468 453 468 z "},"4":{"ha":822,"x_min":46,"x_max":775,"o":"m 438 215 l 46 215 l 46 408 q 247 672 72 440 l 439 926 l 651 926 l 651 422 l 775 422 l 775 215 l 651 215 l 651 0 l 438 0 l 438 215 m 286 422 l 438 422 l 438 629 q 286 422 371 542 z "},"5":{"ha":792,"x_min":47,"x_max":746,"o":"m 300 718 l 300 629 q 418 635 356 635 q 655 550 564 635 q 746 319 746 465 q 641 78 746 178 q 393 -22 536 -22 q 176 50 269 -22 q 47 242 82 122 q 256 308 153 269 q 299 221 263 254 q 390 188 336 188 q 481 224 443 188 q 519 314 519 261 q 483 408 519 369 q 392 446 447 446 q 101 439 317 446 l 101 926 l 693 926 l 693 718 l 300 718 z "},"6":{"ha":811,"x_min":46,"x_max":765,"o":"m 126 582 q 265 803 171 663 q 392 979 349 926 q 572 867 463 936 q 414 647 507 778 q 453 653 433 653 q 679 563 593 653 q 765 331 765 472 q 660 80 765 182 q 406 -22 556 -22 q 151 78 257 -22 q 46 325 46 178 q 126 582 46 436 m 260 321 q 302 218 260 260 q 406 176 344 176 q 508 219 465 176 q 551 321 551 261 q 509 425 551 382 q 406 468 467 468 q 302 425 344 468 q 260 321 260 382 z "},"7":{"ha":758,"x_min":46,"x_max":775,"o":"m 260 568 l 46 568 l 46 926 l 775 926 l 403 0 l 175 0 l 469 718 l 260 718 l 260 568 z "},"8":{"ha":782,"x_min":32,"x_max":750,"o":"m 699 694 q 613 518 699 569 q 714 423 678 488 q 750 283 750 358 q 640 50 750 138 q 389 -29 539 -29 q 139 50 238 -29 q 32 282 32 135 q 67 422 32 358 q 171 519 104 493 q 86 692 86 567 q 183 886 86 813 q 396 954 272 954 q 606 888 519 954 q 699 694 699 814 m 535 292 q 494 386 535 353 q 392 419 454 419 q 289 385 331 419 q 247 292 247 351 q 293 201 247 236 q 392 169 333 169 q 492 202 450 169 q 535 292 535 235 m 488 681 q 462 752 488 724 q 393 781 436 781 q 323 753 349 781 q 297 682 297 726 q 323 609 297 639 q 392 579 349 579 q 461 608 435 579 q 488 681 488 638 z "},"9":{"ha":811,"x_min":46,"x_max":765,"o":"m 685 344 q 550 129 640 264 q 428 -43 465 4 q 247 69 357 1 q 397 279 333 174 q 358 274 378 274 q 132 364 218 274 q 46 596 46 454 q 151 847 46 744 q 406 949 256 949 q 660 849 554 949 q 765 601 765 749 q 685 344 765 490 m 551 606 q 509 708 551 667 q 406 750 467 750 q 303 708 346 750 q 260 606 260 665 q 302 501 260 544 q 406 458 344 458 q 509 501 467 458 q 551 606 551 544 z "}," ":{"ha":694,"x_min":0,"x_max":0,"o":""},".":{"ha":1850,"x_min":0,"x_max":0,"o":""},"@":{"ha":1022,"x_min":96,"x_max":929,"o":"m 929 81 q 906 24 929 47 q 849 0 882 0 l 175 0 q 119 24 142 0 q 96 81 96 47 l 96 753 q 119 810 96 786 q 175 833 142 833 l 849 833 q 906 810 882 833 q 929 753 929 786 l 929 81 m 889 81 l 889 753 q 849 793 889 793 l 175 793 q 135 753 135 793 l 135 81 q 175 40 135 40 l 849 40 q 889 81 889 40 m 732 236 q 706 208 732 208 l 653 208 q 625 236 625 208 l 625 600 q 653 628 625 628 l 706 628 q 732 600 732 628 l 732 236 m 563 236 q 535 208 563 208 l 482 208 q 456 236 456 208 l 456 600 q 482 628 456 628 l 535 628 q 563 600 563 628 l 563 236 m 390 236 q 363 208 390 208 l 310 208 q 282 236 282 208 l 282 600 q 310 628 282 628 l 363 628 q 390 600 390 628 l 390 236 z "},"A":{"ha":1051,"x_min":110,"x_max":943,"o":"m 943 81 q 919 24 943 47 q 863 0 896 0 l 190 0 q 133 24 157 0 q 110 81 110 47 l 110 753 q 133 810 110 786 q 190 833 157 833 l 863 833 q 919 810 896 833 q 943 753 943 786 l 943 81 m 903 81 l 903 753 q 863 793 903 793 l 190 793 q 150 753 150 793 l 150 81 q 190 40 150 40 l 863 40 q 903 81 903 40 m 792 289 q 763 264 792 264 q 751 267 756 264 l 536 390 q 525 414 525 397 q 536 436 525 429 l 753 561 q 763 564 757 564 q 792 539 792 564 l 792 289 m 504 289 q 475 264 504 264 q 464 267 468 264 l 249 390 q 238 414 238 397 q 249 436 238 429 l 465 561 q 475 564 469 564 q 504 539 504 564 l 504 289 z "},"B":{"ha":1111,"x_min":117,"x_max":950,"o":"m 950 81 q 926 24 950 47 q 869 0 903 0 l 196 0 q 140 24 163 0 q 117 81 117 47 l 117 753 q 140 810 117 786 q 196 833 163 833 l 869 833 q 926 810 903 833 q 950 753 950 786 l 950 81 m 910 81 l 910 753 q 869 793 910 793 l 196 793 q 156 753 156 793 l 156 81 q 196 40 156 40 l 869 40 q 910 81 910 40 m 810 436 q 822 414 822 431 q 810 390 822 397 l 596 267 q 585 264 592 264 q 556 289 556 264 l 556 539 q 583 564 556 564 q 594 561 590 564 l 810 436 m 522 436 q 535 414 535 431 q 522 390 535 397 l 308 267 q 297 264 304 264 q 268 289 268 264 l 268 539 q 296 564 268 564 q 307 561 303 564 l 522 436 z "},"C":{"ha":1111,"x_min":153,"x_max":986,"o":"m 986 81 q 963 24 986 47 q 906 0 939 0 l 233 0 q 176 24 200 0 q 153 81 153 47 l 153 753 q 176 810 153 786 q 233 833 200 833 l 906 833 q 963 810 939 833 q 986 753 986 786 l 986 81 m 946 81 l 946 753 q 906 793 946 793 l 233 793 q 193 753 193 793 l 193 81 q 233 40 193 40 l 906 40 q 946 81 946 40 m 756 440 q 771 410 771 432 q 756 379 771 388 l 472 215 q 458 213 468 213 q 419 246 419 213 l 419 574 q 431 598 419 588 q 457 608 443 608 q 471 604 465 608 l 756 440 z "},"D":{"ha":994,"x_min":124,"x_max":869,"o":"m 825 500 q 869 414 869 475 q 825 331 869 354 q 546 179 610 215 q 268 11 360 75 q 226 0 251 0 q 156 28 188 0 q 124 94 124 56 l 124 740 q 155 806 124 779 q 225 833 186 833 q 265 822 246 833 l 825 500 m 797 451 l 238 775 q 225 778 233 778 q 194 767 210 778 q 178 740 178 756 l 178 94 q 194 67 178 79 q 226 54 210 54 q 242 58 235 54 l 797 379 q 814 415 814 389 q 797 451 814 442 z "},"E":{"ha":1742,"x_min":144,"x_max":1621,"o":"m 1574 506 q 1621 415 1621 478 q 1574 325 1621 353 l 1029 13 q 983 0 1007 0 q 907 29 940 0 q 874 100 874 58 l 874 353 q 844 325 861 335 l 300 13 q 254 0 278 0 q 178 29 211 0 q 144 100 144 58 l 144 733 q 178 803 144 774 q 251 833 211 833 q 296 822 276 833 l 844 506 q 874 478 861 496 l 874 733 q 907 803 874 774 q 981 833 940 833 q 1025 822 1006 833 l 1574 506 m 993 74 q 1411 300 1226 199 q 1550 415 1550 376 q 1410 532 1550 456 l 990 761 q 982 763 986 763 q 957 753 969 763 q 944 733 944 744 l 944 100 q 958 80 944 89 q 983 71 971 71 q 993 74 989 71 m 264 74 q 682 300 497 199 q 821 415 821 376 q 682 532 821 456 l 261 761 q 253 763 257 763 q 228 753 240 763 q 215 733 215 744 l 215 100 q 228 80 215 89 q 254 71 242 71 q 264 74 260 71 z "},"F":{"ha":1763,"x_min":138,"x_max":1614,"o":"m 1614 100 q 1581 29 1614 58 q 1504 0 1547 0 q 1458 13 1481 0 l 914 325 q 885 353 899 333 l 885 100 q 851 29 885 58 q 775 0 818 0 q 731 13 753 0 l 185 325 q 138 415 138 351 q 185 506 138 478 l 733 822 q 778 833 753 833 q 851 803 818 833 q 885 733 885 774 l 885 478 q 914 506 897 496 l 1463 822 q 1507 833 1482 833 q 1581 803 1547 833 q 1614 733 1614 774 l 1614 100 m 1543 100 l 1543 733 q 1531 753 1543 744 q 1507 763 1518 763 q 1499 761 1501 763 l 1078 532 q 938 415 938 456 q 1076 300 938 376 l 1494 74 q 1506 71 1499 71 q 1530 80 1517 71 q 1543 100 1543 89 m 814 100 l 814 733 q 802 753 814 744 q 778 763 790 763 q 769 761 772 763 l 349 532 q 208 415 208 456 q 347 300 208 376 l 765 74 q 776 71 769 71 q 801 80 788 71 q 814 100 814 89 z "},"G":{"ha":1428,"x_min":139,"x_max":1283,"o":"m 1283 76 q 1261 22 1283 44 q 1207 0 1239 0 l 1189 0 q 1135 22 1157 0 q 1113 76 1113 44 l 1113 757 q 1135 811 1113 789 q 1189 833 1157 833 l 1207 833 q 1261 811 1239 833 q 1283 757 1283 789 l 1283 76 m 1036 479 q 1068 419 1068 461 q 1036 360 1068 378 l 696 164 q 665 156 682 156 q 615 175 638 156 q 593 222 593 194 l 593 369 q 581 360 588 364 l 240 164 q 211 156 226 156 q 161 175 183 156 q 139 222 139 194 l 139 618 q 160 665 139 646 q 210 685 182 685 q 239 676 225 685 l 581 479 q 593 469 588 475 l 593 618 q 615 665 593 644 q 664 685 638 685 q 694 676 681 685 l 1036 479 m 1232 76 l 1232 757 q 1207 782 1232 782 l 1189 782 q 1164 757 1164 782 l 1164 76 q 1189 51 1164 51 l 1207 51 q 1232 76 1232 51 m 1011 433 l 668 632 q 655 629 664 635 q 646 618 646 624 l 646 222 q 655 210 646 215 q 671 208 664 206 l 1010 406 q 1017 419 1017 408 q 1011 433 1017 431 m 556 433 l 213 632 q 199 629 208 635 q 190 618 190 624 l 190 222 q 200 211 190 217 q 215 208 210 206 l 556 406 q 561 419 561 408 q 556 433 561 431 z "},"H":{"ha":1388,"x_min":128,"x_max":1274,"o":"m 1274 222 q 1251 175 1274 194 q 1201 156 1229 156 q 1171 164 1185 156 l 831 360 q 818 369 824 364 l 818 222 q 796 175 818 194 q 746 156 774 156 q 715 164 729 156 l 375 360 q 343 419 343 378 q 375 479 343 461 l 718 676 q 747 685 732 685 q 797 665 775 685 q 818 618 818 646 l 818 469 q 831 479 824 475 l 1174 676 q 1203 685 1188 685 q 1251 665 1229 685 q 1274 618 1274 644 l 1274 222 m 300 76 q 278 22 300 44 q 224 0 256 0 l 206 0 q 151 22 174 0 q 128 76 128 44 l 128 757 q 151 811 128 789 q 206 833 174 833 l 224 833 q 278 811 256 833 q 300 757 300 789 l 300 76 m 1221 222 l 1221 618 q 1213 629 1221 624 q 1199 632 1204 635 l 857 433 q 851 419 851 431 q 857 406 851 408 l 1197 208 q 1212 211 1203 206 q 1221 222 1221 217 m 767 222 l 767 618 q 758 629 767 624 q 743 632 749 635 l 401 433 q 396 419 396 431 q 401 406 396 408 l 742 208 q 757 211 747 206 q 767 222 767 217 m 247 76 l 247 757 q 224 782 247 782 l 206 782 q 181 757 181 782 l 181 76 q 206 51 181 51 l 224 51 q 247 76 247 51 z "},"I":{"ha":1111,"x_min":115,"x_max":949,"o":"m 861 833 q 923 808 897 833 q 949 746 949 782 l 949 88 q 923 26 949 51 q 861 0 897 0 l 203 0 q 141 26 167 0 q 115 88 115 51 l 115 746 q 141 808 115 782 q 203 833 167 833 l 861 833 m 861 775 l 203 775 q 174 746 174 775 l 174 88 q 203 58 174 58 l 861 58 q 890 88 890 58 l 890 746 q 861 775 890 775 z "},"J":{"ha":994,"x_min":76,"x_max":910,"o":"m 910 417 q 788 122 910 243 q 493 0 667 0 q 198 122 319 0 q 76 417 76 243 q 198 712 76 590 q 493 833 319 833 q 788 712 667 833 q 910 417 910 590 m 856 417 q 750 674 856 568 q 493 779 644 779 q 236 674 342 779 q 131 417 131 568 q 236 160 131 265 q 493 54 342 54 q 750 160 644 54 q 856 417 856 265 z "},"K":{"ha":764,"x_min":79,"x_max":653,"o":"m 653 76 q 631 22 653 44 q 576 0 608 0 l 478 0 q 423 22 446 0 q 400 76 400 44 l 400 757 q 423 811 400 789 q 478 833 446 833 l 576 833 q 631 811 608 833 q 653 757 653 789 l 653 76 m 331 76 q 308 22 331 44 q 254 0 286 0 l 156 0 q 101 22 124 0 q 79 76 79 44 l 79 757 q 101 811 79 789 q 156 833 124 833 l 254 833 q 308 811 286 833 q 331 757 331 789 l 331 76 m 600 76 l 600 757 q 576 782 600 782 l 478 782 q 453 757 453 782 l 453 76 q 478 51 453 51 l 576 51 q 600 76 600 51 m 279 76 l 279 757 q 254 782 279 782 l 156 782 q 131 757 131 782 l 131 76 q 156 51 131 51 l 254 51 q 279 76 279 51 z "},"L":{"ha":1188,"x_min":115,"x_max":1006,"o":"m 1006 76 q 983 22 1006 44 q 929 0 961 0 l 831 0 q 776 22 799 0 q 754 76 754 44 l 754 757 q 776 811 754 789 q 831 833 799 833 l 929 833 q 983 811 961 833 q 1006 757 1006 789 l 1006 76 m 688 76 q 665 22 688 44 q 611 0 643 0 l 513 0 q 458 22 481 0 q 436 76 436 44 l 436 757 q 458 811 436 789 q 513 833 481 833 l 611 833 q 665 811 643 833 q 688 757 688 789 l 688 76 m 367 76 q 344 22 367 44 q 290 0 322 0 l 192 0 q 138 22 160 0 q 115 76 115 44 l 115 757 q 138 811 115 789 q 192 833 160 833 l 290 833 q 344 811 322 833 q 367 757 367 789 l 367 76 m 954 76 l 954 757 q 929 782 954 782 l 831 782 q 806 757 806 782 l 806 76 q 831 51 806 51 l 929 51 q 954 76 954 51 m 636 76 l 636 757 q 611 782 636 782 l 513 782 q 488 757 488 782 l 488 76 q 513 51 488 51 l 611 51 q 636 76 636 51 m 314 76 l 314 757 q 290 782 314 782 l 192 782 q 167 757 167 782 l 167 76 q 192 51 167 51 l 290 51 q 314 76 314 51 z "},"M":{"ha":1082,"x_min":104,"x_max":994,"o":"m 994 76 q 972 22 994 44 q 918 0 950 0 l 819 0 q 765 22 788 0 q 743 76 743 44 l 743 757 q 765 811 743 789 q 819 833 788 833 l 918 833 q 972 811 950 833 q 994 757 994 789 l 994 76 m 676 144 q 653 97 676 115 q 600 78 629 78 l 501 78 q 449 97 472 78 q 425 144 425 115 l 425 689 q 449 737 425 718 q 501 756 472 756 l 600 756 q 653 737 629 756 q 676 689 676 718 l 676 144 m 356 243 q 331 204 356 218 q 279 190 306 190 l 181 190 q 131 203 153 190 q 104 243 104 217 l 104 590 q 131 631 104 617 q 181 643 153 643 l 279 643 q 331 629 306 643 q 356 590 356 615 l 356 243 m 943 76 l 943 757 q 918 782 943 782 l 819 782 q 794 757 794 782 l 794 76 q 819 51 794 51 l 918 51 q 943 76 943 51 m 625 144 l 625 689 q 600 703 625 703 l 501 703 q 476 689 476 703 l 476 144 q 501 131 476 131 l 600 131 q 625 144 625 131 m 304 586 q 279 590 293 590 l 181 590 q 156 586 165 590 l 156 247 q 181 243 165 243 l 279 243 q 303 247 293 243 l 304 586 z "},"N":{"ha":1072,"x_min":113,"x_max":997,"o":"m 997 81 q 975 26 997 49 q 921 4 953 4 l 824 4 q 769 26 792 4 q 747 81 747 49 l 747 757 q 769 811 747 789 q 824 833 792 833 l 921 833 q 975 811 953 833 q 997 757 997 789 l 997 81 m 681 58 q 657 16 681 32 q 606 0 633 0 l 507 0 q 454 15 478 0 q 431 58 431 31 l 431 490 q 454 533 431 518 q 507 549 478 549 l 606 549 q 658 533 635 549 q 681 490 681 518 l 681 58 m 363 81 q 341 26 363 49 q 288 4 319 4 l 189 4 q 135 26 157 4 q 113 81 113 49 l 113 299 q 135 353 113 331 q 189 375 157 375 l 288 375 q 340 352 318 375 q 363 299 363 329 l 363 81 m 946 81 l 946 757 q 921 782 946 782 l 824 782 q 799 757 799 782 l 799 81 q 824 57 799 57 l 921 57 q 946 81 946 57 m 631 489 q 606 497 625 497 l 507 497 q 482 490 486 497 l 482 60 q 507 51 488 51 l 606 51 q 629 58 625 51 l 631 489 m 311 81 l 311 299 q 288 322 311 322 l 189 322 q 164 299 164 322 l 164 81 q 189 56 164 56 l 288 56 q 311 81 311 56 z "},"O":{"ha":1032,"x_min":94,"x_max":928,"o":"m 928 81 q 905 24 928 47 q 849 0 882 0 l 175 0 q 118 24 142 0 q 94 81 94 47 l 94 753 q 118 810 94 786 q 175 833 142 833 l 849 833 q 905 810 882 833 q 928 753 928 786 l 928 81 m 889 81 l 889 753 q 849 793 889 793 l 175 793 q 135 753 135 793 l 135 81 q 175 40 135 40 l 849 40 q 889 81 889 40 m 738 232 q 711 204 738 204 l 658 204 q 631 232 631 204 l 631 596 q 658 624 631 624 l 711 624 q 738 596 738 624 l 738 232 m 568 268 q 540 247 568 247 l 488 247 q 461 268 461 247 l 461 560 q 488 582 461 582 l 540 582 q 568 560 568 582 l 568 268 m 396 321 q 368 307 396 307 l 315 307 q 289 321 289 307 l 289 507 q 315 521 289 521 l 368 521 q 396 507 396 521 l 396 321 z "},"P":{"ha":1051,"x_min":106,"x_max":939,"o":"m 939 63 q 920 18 939 36 q 875 0 901 0 l 168 0 q 124 18 142 0 q 106 63 106 36 l 106 771 q 124 815 106 797 q 168 833 142 833 l 875 833 q 920 815 901 833 q 939 771 939 797 l 939 63 m 722 417 q 664 558 722 500 q 522 617 606 617 q 380 558 439 617 q 321 417 321 500 q 380 274 321 333 q 522 215 439 215 q 664 274 606 215 q 722 417 722 333 z "},"Q":{"ha":1111,"x_min":125,"x_max":958,"o":"m 958 81 q 935 24 958 47 q 879 0 913 0 l 206 0 q 149 24 172 0 q 125 81 125 47 l 125 753 q 149 810 125 786 q 206 833 172 833 l 879 833 q 935 810 913 833 q 958 753 958 786 l 958 81 m 918 81 l 918 753 q 879 793 918 793 l 206 793 q 165 753 165 793 l 165 81 q 206 40 165 40 l 879 40 q 918 81 918 40 m 506 418 l 406 474 l 325 442 l 311 439 q 304 438 310 438 q 285 458 285 438 q 297 476 285 471 q 311 482 300 478 l 360 497 l 308 525 q 283 553 283 539 q 306 574 283 574 l 308 574 q 324 567 313 571 l 378 536 l 369 581 q 367 597 367 596 q 388 617 367 617 q 408 604 404 617 q 410 589 408 597 l 424 510 l 525 451 l 525 567 l 451 625 q 442 642 442 631 q 463 663 442 663 q 474 660 471 663 l 485 650 l 525 621 l 525 678 q 544 714 525 714 q 565 696 563 714 l 565 621 l 599 651 q 625 665 614 665 q 644 644 644 665 q 626 619 644 635 l 565 568 l 565 453 l 665 511 l 679 603 q 700 622 682 622 q 722 603 722 622 l 722 600 l 718 583 l 711 538 l 760 567 l 774 574 q 786 578 779 578 q 806 557 806 578 l 806 553 q 779 529 803 543 l 733 503 l 775 490 q 804 464 804 482 q 782 442 804 442 q 778 444 781 442 q 760 449 771 446 l 688 475 l 588 418 l 688 358 l 760 385 q 782 393 774 390 q 804 372 804 393 q 775 346 804 356 l 733 332 l 779 307 q 800 294 794 299 q 806 279 806 289 q 786 258 806 258 q 774 263 782 258 l 760 269 l 711 297 l 718 253 l 722 236 l 722 233 q 700 211 722 211 q 679 233 683 211 l 676 249 l 665 324 l 565 382 l 565 267 l 626 217 q 644 190 644 201 q 625 171 644 171 q 599 183 611 171 l 565 215 l 565 140 q 546 122 565 122 q 525 158 525 122 l 525 215 l 485 186 l 474 175 q 463 171 471 171 q 442 193 442 171 q 451 210 442 206 l 469 225 l 525 269 l 525 383 l 424 325 l 410 246 q 408 232 410 242 q 388 218 404 218 q 367 238 367 218 q 369 254 367 239 l 378 300 l 324 269 q 306 263 307 263 q 283 282 283 263 q 308 308 283 294 l 360 338 l 311 354 q 285 376 285 360 q 304 399 285 399 q 311 396 310 399 l 325 392 l 406 361 l 506 418 z "},"R":{"ha":1011,"x_min":75,"x_max":908,"o":"m 908 81 q 885 24 908 47 q 828 0 861 0 l 154 0 q 98 24 121 0 q 75 81 75 47 l 75 753 q 98 810 75 786 q 154 833 121 833 l 828 833 q 885 810 861 833 q 908 753 908 786 l 908 81 m 868 81 l 868 753 q 828 793 868 793 l 154 793 q 115 753 115 793 l 115 81 q 154 40 115 40 l 828 40 q 868 81 868 40 m 756 363 q 728 335 756 335 l 638 335 l 638 500 l 728 500 q 756 472 756 500 l 756 363 m 615 321 l 493 229 q 482 226 488 226 q 453 258 453 226 l 453 578 q 481 610 453 610 q 492 607 486 610 l 615 515 l 615 321 m 400 269 q 403 256 406 263 q 386 260 400 250 q 375 269 381 263 q 322 414 322 318 q 372 557 322 511 q 393 568 385 568 q 401 563 401 568 q 397 556 401 558 q 347 414 347 507 q 400 269 347 318 m 307 233 q 311 217 314 224 q 293 221 308 208 q 282 233 290 225 q 226 414 226 294 q 279 593 226 535 q 301 607 292 607 q 308 599 308 607 q 306 592 308 594 q 253 414 253 531 q 307 233 253 294 z "},"S":{"ha":1051,"x_min":110,"x_max":943,"o":"m 943 81 q 919 24 943 47 q 863 0 896 0 l 190 0 q 133 24 157 0 q 110 81 110 47 l 110 753 q 133 810 110 786 q 190 833 157 833 l 863 833 q 919 810 896 833 q 943 753 943 786 l 943 81 m 903 81 l 903 753 q 863 793 903 793 l 190 793 q 150 753 150 793 l 150 81 q 190 40 150 40 l 863 40 q 903 81 903 40 m 601 604 q 599 596 599 601 q 615 576 599 576 l 621 576 q 633 588 632 582 l 639 600 l 674 671 q 678 679 675 675 l 678 686 q 658 703 678 703 q 646 694 647 703 l 640 683 l 601 604 m 707 533 l 764 579 q 775 590 768 583 q 782 603 782 596 q 764 621 782 621 l 763 621 q 742 608 758 621 l 685 564 q 667 540 667 550 q 685 524 667 524 q 697 526 694 524 l 707 533 m 801 500 l 729 486 q 701 463 701 481 q 721 446 701 446 l 725 446 l 813 465 q 836 486 836 471 q 815 504 836 504 l 814 504 l 801 500 m 743 393 q 725 396 738 393 l 719 396 q 700 379 700 396 q 732 357 700 365 l 804 339 l 817 339 q 836 356 836 339 q 824 372 836 367 q 810 376 817 375 l 743 393 m 433 585 q 451 574 440 574 q 468 593 468 574 q 467 601 468 600 l 463 610 l 428 682 q 407 700 419 700 q 389 683 389 700 q 396 664 389 679 l 433 585 m 515 610 q 533 593 515 593 q 551 610 551 593 l 551 717 q 547 726 551 719 q 539 731 544 729 l 533 731 q 515 714 515 731 l 515 610 m 293 254 q 286 239 286 249 q 304 221 286 221 q 325 231 313 221 l 386 279 q 401 300 401 292 q 382 318 401 318 q 363 308 375 318 l 293 254 m 397 181 q 390 160 390 167 q 406 142 390 142 q 431 161 422 142 l 464 235 q 471 251 471 250 q 451 269 471 269 q 432 250 442 269 l 397 181 m 515 131 q 533 114 515 114 q 551 131 551 114 l 551 142 l 553 233 q 535 249 553 249 q 528 247 529 249 q 515 233 515 243 l 515 131 m 607 231 l 638 165 q 643 150 639 158 q 660 142 660 142 q 676 158 676 142 q 671 178 676 167 l 638 247 q 617 268 628 268 q 599 250 599 268 q 600 246 599 249 q 601 242 601 243 l 607 231 m 581 325 q 535 314 558 314 q 458 346 490 314 q 426 422 426 378 q 431 447 426 428 l 400 472 q 390 422 390 446 q 432 322 390 364 q 532 279 474 279 q 611 300 575 279 l 581 325 m 486 515 q 536 528 508 528 q 610 496 578 528 q 642 422 642 464 q 638 393 642 413 l 667 368 q 676 419 676 396 q 635 521 676 478 q 535 564 593 564 q 456 540 497 564 l 486 515 m 250 501 q 231 486 231 501 q 256 464 231 469 l 344 444 q 364 464 364 444 q 351 481 364 478 l 338 482 l 250 501 m 351 361 q 364 376 364 364 q 344 396 364 396 l 342 396 q 329 393 342 396 l 258 376 q 229 356 229 369 q 249 338 229 338 q 268 342 253 338 l 351 361 m 829 103 q 849 96 838 94 q 863 118 867 99 q 858 125 861 124 l 853 133 l 236 733 q 213 749 219 750 q 197 728 194 744 q 208 710 199 719 l 829 103 z "},"T":{"ha":1063,"x_min":115,"x_max":949,"o":"m 949 81 q 926 24 949 47 q 869 0 903 0 l 196 0 q 139 24 163 0 q 115 81 115 47 l 115 753 q 139 810 115 786 q 196 833 163 833 l 869 833 q 926 810 903 833 q 949 753 949 786 l 949 81 m 910 81 l 910 753 q 869 793 910 793 l 196 793 q 156 753 157 793 q 156 81 153 603 q 196 40 156 40 l 869 40 q 910 81 910 40 m 846 229 q 819 203 846 203 l 810 203 q 782 229 782 203 l 782 594 q 810 622 782 622 l 819 622 q 846 594 846 622 l 846 229 m 721 433 q 731 414 731 428 q 721 393 731 400 l 539 289 q 529 286 535 286 q 504 308 504 286 l 504 519 q 529 542 504 542 q 538 539 533 542 l 721 433 m 476 433 q 488 414 488 426 q 476 393 488 400 l 294 289 q 285 286 290 286 q 260 308 260 286 l 260 519 q 285 542 260 542 q 293 539 289 542 l 476 433 z "},"U":{"ha":1032,"x_min":94,"x_max":928,"o":"m 928 81 q 904 24 928 47 q 847 0 881 0 l 175 0 q 118 24 142 0 q 94 81 94 47 l 94 753 q 118 810 94 786 q 175 833 142 833 l 847 833 q 904 810 881 833 q 928 753 928 786 l 928 81 m 888 81 l 888 753 q 847 793 888 793 l 175 793 q 135 753 135 793 l 135 81 q 175 40 135 40 l 847 40 q 888 81 888 40 m 783 308 q 758 286 783 286 q 749 289 753 286 l 567 393 q 557 414 557 400 q 567 433 557 428 l 750 539 q 760 542 754 542 q 783 519 783 542 l 783 308 m 539 308 q 514 286 539 286 q 506 289 511 286 l 322 393 q 313 414 313 400 q 322 433 313 428 l 507 539 q 515 542 510 542 q 539 519 539 542 l 539 308 m 261 229 q 235 203 261 203 l 225 203 q 197 229 197 203 l 197 594 q 225 622 197 622 l 235 622 q 261 594 261 622 l 261 229 z "},"V":{"ha":1015,"x_min":78,"x_max":911,"o":"m 383 268 q 310 394 310 324 q 343 478 310 442 q 374 507 350 483 q 443 635 443 575 q 439 678 443 642 q 438 703 439 690 q 531 622 504 658 q 567 506 560 579 q 603 586 594 542 q 611 576 607 582 q 661 460 661 521 q 621 349 661 396 q 558 296 607 333 q 479 322 524 322 q 383 268 422 322 m 386 207 q 414 275 386 247 q 482 303 442 303 q 551 275 522 303 q 579 207 579 247 q 551 139 579 167 q 482 111 522 111 q 414 139 442 111 q 386 207 386 167 m 382 326 q 381 340 381 332 q 399 379 381 361 l 425 406 q 451 472 451 432 l 451 483 q 501 397 501 451 q 499 375 501 393 q 536 419 526 393 q 554 372 554 401 q 544 335 554 364 q 619 461 619 382 q 614 501 619 481 q 532 442 596 471 l 517 435 q 519 451 518 439 q 526 504 526 492 q 479 619 526 569 q 393 472 471 544 q 351 399 351 433 q 382 326 351 360 m 425 207 q 442 167 425 183 q 482 151 458 151 q 522 167 506 151 q 539 207 539 183 q 522 247 539 231 q 482 263 506 263 q 442 247 458 263 q 425 207 425 231 m 911 78 q 888 21 911 44 q 832 -3 865 -3 l 158 -3 q 101 21 125 -3 q 78 78 78 44 l 78 751 q 101 808 78 785 q 158 831 125 831 l 832 831 q 888 808 865 831 q 911 751 911 785 l 911 78 m 872 78 l 872 751 q 832 792 872 792 l 158 792 q 118 751 118 792 l 118 78 q 158 38 118 38 l 832 38 q 872 78 872 38 z "},"W":{"ha":1063,"x_min":126,"x_max":960,"o":"m 960 63 q 941 18 960 36 q 896 0 922 0 l 189 0 q 144 18 163 0 q 126 63 126 36 l 126 771 q 144 815 126 797 q 189 833 163 833 l 896 833 q 941 815 922 833 q 960 771 960 797 l 960 63 m 768 229 l 768 592 q 740 619 768 619 l 688 619 q 661 592 661 619 l 661 229 q 688 201 661 201 l 740 201 q 768 229 768 201 m 597 217 l 597 449 q 571 467 597 467 l 518 467 q 490 449 490 467 l 490 217 q 518 199 490 199 l 571 199 q 597 217 597 199 m 426 228 l 426 346 q 400 372 426 372 l 346 372 q 319 346 319 372 l 319 228 q 346 201 319 201 l 400 201 q 426 228 426 201 z "},"X":{"ha":1389,"x_min":0,"x_max":0,"o":""},"Y":{"ha":1042,"x_min":115,"x_max":949,"o":"m 949 63 q 931 18 949 36 q 886 0 913 0 l 179 0 q 134 18 153 0 q 115 63 115 36 l 115 771 q 134 815 115 797 q 179 833 153 833 l 886 833 q 931 815 913 833 q 949 771 949 797 l 949 63 m 758 229 l 758 592 q 731 619 758 619 l 678 619 q 651 592 651 619 l 651 229 q 678 201 651 201 l 731 201 q 758 229 758 201 m 588 265 l 588 556 q 561 578 588 578 l 508 578 q 481 556 481 578 l 481 265 q 508 243 481 243 l 561 243 q 588 265 588 243 m 417 317 l 417 504 q 389 518 417 518 l 336 518 q 310 504 310 518 l 310 317 q 336 303 310 303 l 389 303 q 417 317 417 303 z "},"Z":{"ha":1022,"x_min":96,"x_max":929,"o":"m 929 81 q 906 24 929 47 q 849 0 882 0 l 175 0 q 119 24 142 0 q 96 81 96 47 l 96 753 q 119 810 96 786 q 175 833 142 833 l 849 833 q 906 810 882 833 q 929 753 929 786 l 929 81 m 889 81 l 889 753 q 849 793 889 793 l 175 793 q 135 753 135 793 l 135 81 q 175 40 135 40 l 849 40 q 889 81 889 40 m 215 399 q 239 422 215 422 q 261 399 261 422 q 239 376 261 376 q 215 399 215 376 m 776 549 l 740 549 l 740 551 l 739 558 q 718 567 739 567 q 696 540 696 567 l 696 519 q 718 493 696 493 q 739 511 739 493 l 739 514 l 776 514 l 776 504 q 743 464 776 464 l 704 464 q 656 522 656 464 l 656 538 q 672 589 656 576 q 726 599 685 599 q 776 550 776 599 l 776 549 m 608 596 q 631 617 608 617 q 654 596 654 617 q 631 572 654 572 q 608 596 608 572 m 469 315 l 428 315 q 411 333 411 315 q 428 353 411 353 l 469 353 l 469 676 q 485 710 469 696 q 521 724 501 724 q 569 676 563 724 l 569 549 l 604 549 q 622 531 622 549 q 613 514 622 517 q 590 511 610 511 l 569 511 l 569 250 q 606 178 606 217 q 581 115 606 140 q 518 89 556 89 q 455 115 481 89 q 429 178 429 140 q 469 253 429 228 l 469 315 m 383 354 l 347 354 l 347 363 q 325 372 347 372 q 303 347 303 372 l 303 324 q 325 299 303 299 q 347 315 347 299 l 347 318 l 383 318 l 383 307 q 350 269 383 271 l 321 268 l 311 268 q 265 328 265 268 l 265 344 q 282 393 265 382 q 335 403 294 403 q 383 356 383 403 l 383 354 m 226 399 q 239 388 226 388 q 250 399 250 388 q 239 411 250 411 q 226 399 226 411 m 619 596 q 631 583 619 583 q 643 596 643 583 q 631 607 643 607 q 619 596 619 607 m 507 353 l 529 353 l 529 511 l 507 511 l 507 353 m 507 549 l 529 549 l 529 678 q 519 686 528 686 q 508 676 513 686 q 507 672 508 674 l 507 549 m 467 172 l 569 172 l 569 179 q 543 222 569 197 q 529 242 529 231 l 529 315 l 507 315 l 507 258 q 496 224 507 231 q 467 175 467 206 l 467 172 z "},"a":{"ha":1111,"x_min":115,"x_max":949,"o":"m 869 833 q 926 810 903 833 q 949 753 949 786 l 949 81 q 926 24 949 47 q 869 0 903 0 l 196 0 q 139 24 163 0 q 115 81 115 47 l 115 753 q 139 810 115 786 q 196 833 163 833 l 869 833 m 869 793 l 196 793 q 156 753 156 793 l 156 81 q 196 40 156 40 l 869 40 q 910 81 910 40 l 910 753 q 869 793 910 793 m 369 608 l 683 608 q 711 581 711 608 l 711 267 q 683 239 711 239 l 369 239 q 342 267 342 239 l 342 581 q 369 608 342 608 z "},"b":{"ha":1051,"x_min":115,"x_max":949,"o":"m 949 81 q 925 24 949 47 q 868 0 901 0 l 194 0 q 138 24 161 0 q 115 81 115 47 l 115 753 q 138 810 115 786 q 194 833 161 833 l 868 833 q 925 810 901 833 q 949 753 949 786 l 949 81 m 908 81 l 908 753 q 868 793 908 793 l 194 793 q 154 753 154 793 l 154 81 q 194 40 154 40 l 868 40 q 908 81 908 40 m 729 425 q 670 283 729 342 q 528 224 611 224 q 386 283 444 224 q 328 425 328 342 q 386 567 328 508 q 528 626 444 626 q 670 567 611 626 q 729 425 729 508 z "},"c":{"ha":1063,"x_min":106,"x_max":939,"o":"m 939 81 q 915 24 939 47 q 858 0 892 0 l 185 0 q 128 24 151 0 q 106 81 106 47 l 106 753 q 128 810 106 786 q 185 833 151 833 l 858 833 q 915 810 892 833 q 939 753 939 786 l 939 81 m 899 81 l 899 753 q 858 793 899 793 l 185 793 q 146 753 146 793 l 146 81 q 185 40 146 40 l 858 40 q 899 81 899 40 m 661 235 q 635 207 661 207 l 582 207 q 554 235 554 207 l 554 599 q 582 626 554 626 l 635 626 q 661 599 661 626 l 661 235 m 489 235 q 463 207 489 207 l 410 207 q 382 235 382 207 l 382 599 q 410 626 382 626 l 463 626 q 489 599 489 626 l 489 235 z "},"d":{"ha":899,"x_min":-7,"x_max":732,"o":"m 700 479 q 732 415 732 461 q 700 351 732 369 l 104 8 q 74 0 90 0 q 19 21 44 0 q -7 71 -7 42 l -7 763 q 18 813 -7 792 q 72 833 43 833 q 100 826 88 833 l 700 479 z "},"e":{"ha":1915,"x_min":197,"x_max":1733,"o":"m 1701 479 q 1733 415 1733 461 q 1700 351 1733 371 l 1106 8 q 1075 0 1092 0 q 1020 21 1046 0 q 994 71 994 42 l 994 763 q 1019 813 994 792 q 1072 833 1043 833 q 1101 826 1089 833 l 1701 479 m 904 479 q 936 415 936 461 q 904 351 936 369 l 308 8 q 278 0 294 0 q 223 21 249 0 q 197 71 197 42 l 197 763 q 222 813 197 792 q 276 833 247 833 q 304 826 292 833 l 904 479 z "},"f":{"ha":1814,"x_min":126,"x_max":1663,"o":"m 1663 71 q 1637 21 1663 42 q 1582 0 1611 0 q 1551 8 1565 0 l 956 351 q 924 415 924 369 q 956 479 924 461 l 1556 826 q 1583 833 1568 833 q 1638 813 1613 833 q 1663 763 1663 792 l 1663 71 m 865 71 q 840 21 865 42 q 785 0 814 0 q 754 8 768 0 l 160 351 q 126 415 126 371 q 158 479 126 461 l 758 826 q 788 833 771 833 q 841 813 817 833 q 865 763 865 792 l 865 71 z "},"g":{"ha":1458,"x_min":165,"x_max":1331,"o":"m 1331 54 q 1315 16 1331 32 q 1278 0 1300 0 l 1258 0 q 1219 15 1235 0 q 1204 54 1204 31 l 1204 779 q 1219 818 1204 803 q 1258 833 1235 833 l 1278 833 q 1315 817 1300 833 q 1331 779 1331 801 l 1331 54 m 1082 458 q 1101 419 1101 447 q 1082 381 1101 392 l 719 171 q 700 167 713 167 q 667 180 682 167 q 651 210 651 193 l 651 631 q 666 661 651 649 q 699 674 681 674 q 717 669 710 674 l 1082 458 m 596 458 q 617 419 617 446 q 596 381 617 393 l 233 171 q 215 167 226 167 q 181 179 197 167 q 165 210 165 192 l 165 631 q 181 661 165 649 q 214 674 196 674 q 231 669 224 674 l 596 458 z "},"h":{"ha":1418,"x_min":135,"x_max":1300,"o":"m 1300 210 q 1285 180 1300 193 q 1251 167 1269 167 q 1232 171 1239 167 l 869 381 q 850 419 850 392 q 869 458 850 447 l 1235 669 q 1253 674 1242 674 q 1285 661 1271 674 q 1300 631 1300 649 l 1300 210 m 815 210 q 799 180 815 193 q 765 167 783 167 q 747 171 754 167 l 385 381 q 364 419 364 393 q 385 458 364 446 l 750 669 q 767 674 757 674 q 800 661 785 674 q 815 631 815 649 l 815 210 m 263 54 q 247 16 263 32 q 208 0 231 0 l 189 0 q 151 16 167 0 q 135 54 135 32 l 135 779 q 151 817 135 801 q 189 833 167 833 l 208 833 q 247 817 231 833 q 263 779 263 801 l 263 54 z "},"i":{"ha":1111,"x_min":142,"x_max":975,"o":"m 204 838 l 913 838 q 957 819 939 838 q 975 775 975 801 l 975 67 q 957 22 975 40 q 913 4 939 4 l 204 4 q 160 23 179 4 q 142 67 142 42 l 142 775 q 160 819 142 801 q 204 838 178 838 z "},"j":{"ha":1111,"x_min":106,"x_max":939,"o":"m 939 417 q 817 122 939 243 q 522 0 696 0 q 227 122 349 0 q 106 417 106 243 q 227 712 106 590 q 522 833 349 833 q 817 712 696 833 q 939 417 939 590 z "},"k":{"ha":742,"x_min":93,"x_max":650,"o":"m 650 54 q 634 16 650 32 q 596 0 618 0 l 490 0 q 452 16 468 0 q 436 54 436 32 l 436 779 q 452 817 436 801 q 490 833 468 833 l 596 833 q 634 817 618 833 q 650 779 650 801 l 650 54 m 307 54 q 291 16 307 32 q 253 0 275 0 l 147 0 q 109 16 125 0 q 93 54 93 32 l 93 779 q 109 817 93 801 q 147 833 125 833 l 253 833 q 291 817 275 833 q 307 779 307 801 l 307 54 z "},"l":{"ha":1193,"x_min":146,"x_max":1042,"o":"m 1042 54 q 1026 16 1042 32 q 988 0 1010 0 l 882 0 q 844 16 860 0 q 828 54 828 32 l 828 779 q 844 817 828 801 q 882 833 860 833 l 988 833 q 1026 817 1010 833 q 1042 779 1042 801 l 1042 54 m 703 54 q 687 16 703 32 q 649 0 671 0 l 543 0 q 505 16 521 0 q 489 54 489 32 l 489 779 q 505 817 489 801 q 543 833 521 833 l 649 833 q 687 817 671 833 q 703 779 703 801 l 703 54 m 360 54 q 344 16 360 32 q 306 0 328 0 l 200 0 q 162 16 178 0 q 146 54 146 32 l 146 779 q 162 817 146 801 q 200 833 178 833 l 306 833 q 344 817 328 833 q 360 779 360 801 l 360 54 z "},"m":{"ha":1124,"x_min":126,"x_max":1021,"o":"m 1021 54 q 1005 16 1021 32 q 967 0 989 0 l 861 0 q 823 16 839 0 q 807 54 807 32 l 807 779 q 823 817 807 801 q 861 833 839 833 l 967 833 q 1005 817 989 833 q 1021 779 1021 801 l 1021 54 m 682 126 q 628 83 682 83 l 522 83 q 468 126 468 83 l 468 707 q 522 750 468 750 l 628 750 q 682 707 682 750 l 682 126 m 339 231 q 285 203 339 203 l 181 203 q 126 231 126 203 l 126 603 q 181 631 126 631 l 285 631 q 339 603 339 631 l 339 231 z "},"n":{"ha":1113,"x_min":114,"x_max":1003,"o":"m 1003 58 q 987 21 1003 36 q 949 6 971 6 l 844 6 q 806 21 822 6 q 790 58 790 36 l 790 779 q 806 817 790 801 q 844 833 822 833 l 949 833 q 987 817 971 833 q 1003 779 1003 801 l 1003 58 m 665 35 q 611 0 665 0 l 507 0 q 454 35 454 0 l 454 496 q 507 531 454 531 l 611 531 q 665 496 665 531 l 665 35 m 326 58 q 310 20 326 36 q 272 4 294 4 l 168 4 q 129 19 144 4 q 114 58 114 35 l 114 290 q 129 329 114 314 q 168 344 144 344 l 272 344 q 310 328 294 344 q 326 290 326 313 l 326 58 z "},"o":{"ha":1397,"x_min":147,"x_max":1257,"o":"m 1257 313 q 1240 272 1257 289 q 1199 254 1222 254 l 1011 254 l 1011 603 l 1199 603 q 1240 585 1224 603 q 1257 543 1257 568 l 1257 313 m 964 225 l 707 35 q 683 26 696 26 q 640 48 657 26 q 622 96 622 69 l 622 764 q 639 812 622 790 q 681 833 656 833 q 703 826 693 833 l 963 635 l 964 225 m 511 118 q 518 96 518 108 q 508 85 518 85 q 458 117 492 85 q 349 421 349 219 q 454 721 349 624 q 499 746 482 746 q 514 732 514 746 q 507 719 514 725 q 400 421 400 617 q 511 118 400 219 m 318 42 q 325 14 325 29 q 315 0 325 0 q 263 40 299 0 q 147 421 147 169 q 258 796 147 675 q 304 826 286 826 q 321 810 321 826 q 314 794 321 800 q 203 421 203 665 q 318 42 203 169 z "},"p":{"ha":992,"x_min":94,"x_max":869,"o":"m 94 511 q 126 543 94 543 q 157 511 157 543 q 126 479 157 479 q 94 511 94 479 m 869 718 l 818 718 l 818 721 l 817 731 q 789 743 817 743 q 763 736 768 743 q 757 707 757 729 l 757 678 q 762 648 757 656 q 788 640 767 640 q 811 644 806 640 q 817 667 817 649 l 817 669 l 868 669 l 868 656 q 822 601 868 603 l 769 600 q 703 682 703 599 l 703 703 q 725 772 703 756 q 800 786 743 786 q 869 719 869 786 l 869 718 m 638 782 q 668 813 638 813 q 700 782 700 813 q 668 750 700 750 q 638 782 638 750 m 444 394 l 388 394 q 376 400 383 394 q 364 419 364 407 q 372 438 364 428 q 388 447 381 447 l 444 447 l 444 894 q 467 940 444 921 q 515 958 489 958 q 582 894 574 958 l 582 717 l 631 717 q 644 714 639 717 q 656 692 656 707 q 643 669 656 674 q 613 667 639 667 l 582 667 l 582 306 q 633 206 633 260 q 598 119 633 154 q 511 83 563 83 q 424 119 460 83 q 389 206 389 154 q 444 308 389 275 l 444 394 m 326 449 l 276 449 l 276 461 q 246 474 276 474 q 219 467 225 474 q 214 439 214 460 l 214 407 q 219 378 214 385 q 246 372 224 372 q 276 396 276 372 l 276 400 l 326 400 l 326 385 q 279 332 326 333 l 239 331 l 226 331 q 163 413 163 331 l 163 435 q 185 503 163 488 q 258 517 203 517 q 326 450 326 517 l 326 449 m 110 511 q 126 496 110 496 q 142 511 142 496 q 126 528 142 528 q 110 511 110 528 m 651 782 q 668 765 651 765 q 685 782 685 765 q 667 799 685 799 q 651 782 651 799 m 497 447 l 528 447 l 528 667 l 497 667 l 497 447 m 497 718 l 528 718 l 528 896 q 514 907 525 907 q 499 894 503 907 q 497 888 499 890 l 497 718 m 442 197 l 582 197 l 582 207 q 565 251 582 235 q 540 269 553 260 q 528 293 528 279 l 528 394 l 497 394 l 497 317 q 494 286 497 292 q 481 268 492 275 q 442 201 442 244 l 442 197 z "},"q":{"ha":731,"x_min":135,"x_max":592,"o":"m 231 349 q 135 513 135 421 q 178 621 135 568 q 217 660 186 629 q 307 826 307 749 q 303 882 307 817 q 300 914 303 893 q 421 810 388 857 q 468 658 460 754 q 515 763 507 703 q 526 750 519 760 q 576 682 563 708 q 592 599 592 647 q 539 453 592 513 q 510 421 518 429 q 458 385 494 408 q 354 419 413 419 q 231 349 282 419 m 233 268 q 269 357 233 321 q 358 393 306 393 q 449 358 413 393 q 485 268 485 322 q 449 178 485 214 q 358 143 413 143 q 270 180 307 143 q 233 268 233 217 m 228 424 q 226 442 226 431 q 250 493 226 468 l 283 528 q 318 614 318 564 l 318 629 q 383 517 383 588 q 381 488 383 511 q 429 546 417 511 q 451 483 451 522 q 440 435 451 472 q 538 600 538 496 q 529 653 538 625 q 485 603 513 621 q 424 575 469 593 l 404 565 q 407 586 404 571 q 415 656 415 640 q 354 806 415 740 q 243 614 344 707 q 188 518 188 563 q 228 424 188 468 m 285 268 q 307 217 285 239 q 358 196 329 196 q 410 217 389 196 q 432 268 432 238 q 410 319 432 299 q 358 340 389 340 q 306 319 328 340 q 285 268 285 299 z "},"r":{"ha":961,"x_min":119,"x_max":775,"o":"m 399 518 l 272 588 l 171 549 l 154 544 q 146 543 151 543 q 121 569 121 543 q 136 592 121 586 q 154 599 140 593 l 214 618 l 150 653 q 119 688 119 669 q 147 714 119 714 l 150 714 q 156 713 153 713 q 169 704 160 708 l 238 667 l 226 722 q 224 743 222 740 q 250 768 224 768 q 275 751 271 768 q 278 732 275 747 l 296 633 l 422 560 l 422 706 l 353 761 l 329 778 q 318 799 318 786 q 344 825 318 825 q 358 821 354 825 l 372 810 l 422 772 l 422 844 q 447 890 422 890 q 472 867 471 890 l 474 842 l 474 774 l 515 811 q 549 829 535 829 q 572 803 572 829 q 550 771 572 789 l 474 707 l 474 563 l 599 635 l 615 750 q 643 775 619 775 q 669 750 669 775 l 669 747 l 665 726 l 656 668 l 717 704 l 735 714 q 750 718 740 718 q 775 693 775 718 l 775 688 q 742 658 771 675 l 685 625 l 736 608 q 774 575 774 596 q 746 549 774 549 q 740 551 743 549 q 718 557 729 553 l 626 590 l 501 518 l 626 443 l 718 476 q 746 486 744 486 q 774 460 774 486 q 736 428 774 440 l 685 410 l 742 378 q 765 363 764 365 q 775 343 775 356 q 750 317 775 317 q 735 322 743 317 l 717 332 l 656 367 l 665 310 l 669 289 l 669 286 q 643 258 669 258 q 615 286 619 258 l 613 306 l 599 400 l 474 472 l 474 328 l 550 265 q 572 232 572 247 q 549 207 572 207 q 515 224 533 207 l 474 263 l 474 194 l 472 169 q 449 146 471 146 q 422 192 422 146 l 422 264 l 372 226 l 358 213 q 344 208 354 208 q 318 235 318 208 q 329 257 318 251 l 353 275 l 422 331 l 422 475 l 296 401 l 278 301 q 275 285 276 297 q 250 267 269 267 q 224 292 224 267 q 226 313 222 294 l 238 369 l 169 332 q 147 322 151 322 q 119 347 119 322 q 150 381 119 364 l 214 417 l 154 438 q 136 443 147 440 q 121 465 121 450 q 146 493 121 493 q 154 490 151 493 l 171 485 l 272 447 l 399 518 z "},"s":{"ha":1063,"x_min":60,"x_max":983,"o":"m 607 768 l 601 754 q 597 743 597 751 q 619 718 597 718 l 628 718 q 644 732 642 725 l 651 749 l 697 843 q 703 854 697 843 l 703 864 q 678 886 703 886 q 660 875 663 886 l 653 861 l 607 768 m 742 661 l 818 722 q 835 736 822 726 q 842 753 842 742 q 817 776 842 776 l 815 776 q 788 760 808 776 l 713 701 q 689 671 689 683 q 713 647 689 647 q 729 651 725 647 l 742 661 m 868 617 l 772 597 q 735 567 735 590 q 760 544 735 544 l 765 544 l 782 549 l 882 571 q 914 597 914 578 q 886 622 914 622 l 885 622 l 868 617 m 789 474 q 767 478 783 475 l 758 478 q 733 456 733 478 q 775 426 733 436 l 871 403 q 888 401 876 401 q 914 424 914 401 q 910 437 914 429 q 879 451 907 444 l 789 474 m 378 729 q 401 715 388 715 q 425 740 425 715 q 422 751 425 749 l 417 763 l 371 858 q 343 883 358 883 q 318 861 318 883 q 328 835 318 856 l 378 729 m 488 763 q 511 740 488 740 q 535 763 535 740 l 535 904 q 518 922 535 919 q 511 924 515 924 q 488 900 488 924 l 488 763 m 204 300 l 192 289 q 182 269 182 281 q 206 244 182 244 q 235 258 218 244 l 315 324 q 336 351 336 340 q 310 375 336 375 q 283 361 301 375 l 204 300 m 329 192 q 321 164 321 169 q 342 140 321 140 q 374 165 363 140 l 419 264 q 428 286 428 282 q 419 302 428 294 q 401 310 410 310 q 376 285 389 310 l 329 192 m 488 125 q 511 103 488 103 q 535 125 535 103 l 535 140 l 536 263 q 528 275 536 268 q 513 282 519 282 q 503 281 506 282 q 488 261 488 275 l 488 125 m 608 258 l 649 171 q 657 151 651 165 q 679 140 679 140 q 701 163 701 140 q 694 188 701 174 l 650 281 q 621 308 636 308 q 599 285 599 308 q 600 278 599 282 q 601 274 601 275 l 608 258 m 574 383 q 513 369 544 369 q 411 412 454 369 q 368 513 368 454 q 374 546 368 521 l 333 579 q 321 514 321 544 q 376 378 321 435 q 510 322 431 322 q 614 351 567 322 l 574 383 m 447 638 q 514 653 478 653 q 612 611 569 653 q 654 514 654 569 q 650 474 654 500 l 688 442 q 701 510 701 478 q 646 644 701 588 q 513 701 590 701 q 407 669 464 701 l 447 638 m 133 618 q 108 597 108 618 q 142 568 108 575 l 239 546 l 260 543 q 286 568 286 543 q 268 590 286 588 l 250 593 l 133 618 m 269 432 q 285 453 285 436 q 260 478 285 478 l 256 478 q 239 475 251 478 l 144 453 q 107 425 107 444 q 132 400 107 400 q 158 406 139 401 l 269 432 m 938 149 q 963 143 950 139 q 976 172 983 149 q 971 181 974 179 l 963 189 l 114 858 q 82 874 92 876 q 65 847 60 867 q 82 825 68 836 l 938 149 z "},"t":{"ha":1111,"x_min":125,"x_max":958,"o":"m 958 63 q 940 18 958 36 q 896 0 922 0 l 189 0 q 144 18 163 0 q 125 63 125 36 l 125 771 q 144 815 125 797 q 189 833 163 833 l 896 833 q 940 815 922 833 q 958 771 958 797 l 958 63 m 796 300 l 796 550 q 767 575 796 575 q 757 572 761 575 l 540 447 q 529 425 529 440 q 540 401 529 408 l 756 278 q 767 275 760 275 q 796 300 796 275 m 508 300 l 508 550 q 481 575 508 575 q 469 572 474 575 l 254 447 q 243 425 243 440 q 254 401 243 408 l 468 278 q 479 275 472 275 q 508 300 508 275 z "},"u":{"ha":1143,"x_min":146,"x_max":979,"o":"m 979 63 q 961 18 979 36 q 917 0 943 0 l 210 0 q 165 18 183 0 q 146 63 146 36 l 146 771 q 165 815 146 797 q 210 833 183 833 l 917 833 q 961 815 943 833 q 979 771 979 797 l 979 63 m 740 457 l 456 621 q 442 625 450 625 q 406 590 406 625 l 406 264 q 417 240 406 250 q 443 229 429 229 q 458 233 451 229 l 740 396 q 756 426 756 404 q 740 457 756 449 z "},"v":{"ha":1103,"x_min":125,"x_max":958,"o":"m 188 833 l 896 833 q 940 815 921 833 q 958 771 958 796 l 958 63 q 940 19 958 38 q 896 0 921 0 l 188 0 q 143 18 161 0 q 125 63 125 36 l 125 771 q 143 815 125 797 q 188 833 161 833 m 385 601 q 357 574 357 601 l 357 260 q 385 232 357 232 l 699 232 q 726 260 726 232 l 726 574 q 699 601 726 601 l 385 601 z "},"w":{"ha":1143,"x_min":136,"x_max":969,"o":"m 969 63 q 951 18 969 36 q 906 0 932 0 l 199 0 q 154 18 172 0 q 136 63 136 36 l 136 771 q 154 815 136 797 q 199 833 172 833 l 906 833 q 951 815 932 833 q 969 771 969 797 l 969 63 m 840 447 l 625 572 q 614 575 621 575 q 586 550 586 575 l 586 300 q 615 275 586 275 q 626 278 622 275 l 840 401 q 851 425 851 408 q 840 447 851 440 m 554 447 l 338 572 q 328 575 333 575 q 299 550 299 575 l 299 300 q 328 275 299 275 q 339 278 335 275 l 554 401 q 565 425 565 408 q 554 447 565 440 z "},"x":{"ha":1063,"x_min":115,"x_max":949,"o":"m 949 63 q 930 19 949 38 q 886 0 911 0 l 178 0 q 134 19 153 0 q 115 63 115 38 l 115 771 q 134 815 115 796 q 178 833 153 833 l 886 833 q 930 815 911 833 q 949 771 949 796 l 949 63 m 671 229 l 671 592 q 644 619 671 619 l 592 619 q 564 592 564 619 l 564 229 q 592 201 564 201 l 644 201 q 671 229 671 201 m 500 229 l 500 592 q 472 619 500 619 l 419 619 q 393 592 393 619 l 393 229 q 419 201 393 201 l 472 201 q 500 229 500 201 z "},"y":{"ha":1042,"x_min":94,"x_max":928,"o":"m 928 63 q 909 19 928 38 q 865 0 890 0 l 157 0 q 113 19 132 0 q 94 63 94 38 l 94 771 q 113 815 94 796 q 157 833 132 833 l 865 833 q 909 815 890 833 q 928 771 928 796 l 928 63 m 769 365 l 769 475 q 742 503 769 503 l 653 503 l 653 338 l 742 338 q 769 365 769 338 m 629 322 l 629 518 q 506 608 596 542 q 494 613 501 613 q 467 579 467 613 l 467 261 q 496 229 467 229 q 507 232 501 229 l 629 322 m 414 272 q 361 417 361 321 q 413 558 361 510 q 415 564 415 560 q 408 571 415 571 q 388 558 401 571 q 336 417 336 511 q 389 272 336 321 q 401 263 397 265 q 417 258 414 253 q 414 272 419 265 m 322 236 q 268 415 268 296 q 321 593 268 532 q 324 601 324 596 q 317 608 324 608 q 294 594 307 608 q 242 415 242 538 q 296 235 242 296 q 308 224 300 229 q 325 219 322 211 q 322 236 328 226 z "},"z":{"ha":1063,"x_min":117,"x_max":950,"o":"m 950 63 q 931 18 950 36 q 886 0 913 0 l 179 0 q 135 18 153 0 q 117 63 117 36 l 117 771 q 135 815 117 797 q 179 833 153 833 l 886 833 q 931 815 913 833 q 950 771 950 797 l 950 63 m 826 301 l 826 513 q 803 535 826 535 q 794 532 799 535 l 611 426 q 601 407 601 421 q 611 386 601 393 l 793 282 q 803 279 797 279 q 826 301 826 279 m 583 301 l 583 513 q 560 535 583 535 q 550 532 554 535 l 367 426 q 357 407 357 421 q 367 386 357 393 l 549 282 q 558 279 553 279 q 583 301 583 279 m 306 224 l 306 588 q 279 614 306 614 l 269 614 q 242 588 242 614 l 242 224 q 269 196 242 196 l 279 196 q 306 224 306 196 z "},"{":{"ha":1103,"x_min":136,"x_max":969,"o":"m 969 63 q 951 19 969 38 q 907 0 932 0 l 199 0 q 154 18 172 0 q 136 63 136 36 l 136 771 q 154 815 136 797 q 199 833 172 833 l 907 833 q 951 815 932 833 q 969 771 969 796 l 969 63 m 843 224 l 843 588 q 817 614 843 614 l 807 614 q 779 588 779 614 l 779 224 q 807 196 779 196 l 817 196 q 843 224 843 196 m 718 426 l 535 532 q 526 535 531 535 q 503 513 503 535 l 503 301 q 526 279 503 279 q 536 282 532 279 l 718 386 q 728 407 728 393 q 718 426 728 421 m 475 426 l 292 532 q 282 535 288 535 q 258 513 258 535 l 258 301 q 283 279 258 279 q 293 282 289 279 l 475 386 q 485 407 485 393 q 475 426 485 421 z "},"}":{"ha":1124,"x_min":136,"x_max":969,"o":"m 969 63 q 951 18 969 36 q 906 0 932 0 l 199 0 q 154 18 172 0 q 136 63 136 36 l 136 771 q 154 815 136 797 q 199 833 172 833 l 906 833 q 951 815 932 833 q 969 771 969 797 l 969 63 m 778 229 l 778 592 q 750 619 778 619 l 699 619 q 671 592 671 619 l 671 229 q 699 201 671 201 l 750 201 q 778 229 778 201 m 608 229 l 608 592 q 581 619 608 619 l 528 619 q 501 592 501 619 l 501 229 q 528 201 501 201 l 581 201 q 608 229 608 201 m 436 229 l 436 592 q 408 619 436 619 l 356 619 q 329 592 329 619 l 329 229 q 356 201 329 201 l 408 201 q 436 229 436 201 z "},"~":{"ha":1111,"x_min":125,"x_max":958,"o":"m 958 81 q 935 24 958 47 q 879 0 913 0 l 206 0 q 149 24 172 0 q 125 81 125 47 l 125 753 q 149 810 125 786 q 206 833 172 833 l 879 833 q 935 810 913 833 q 958 753 958 786 l 958 81 m 918 81 l 918 753 q 879 793 918 793 l 206 793 q 165 753 165 793 l 165 81 q 206 40 165 40 l 879 40 q 918 81 918 40 m 771 218 q 744 192 771 192 l 692 192 q 664 218 664 192 l 664 583 q 692 610 664 610 l 744 610 q 771 583 771 610 l 771 218 m 601 206 q 574 189 601 189 l 521 189 q 494 206 494 189 l 494 439 q 521 457 494 457 l 574 457 q 601 439 601 457 l 601 206 m 429 218 q 403 190 429 190 l 349 190 q 322 218 322 190 l 322 335 q 349 363 322 363 l 403 363 q 429 335 429 363 l 429 218 z "},"¤":{"ha":1111,"x_min":0,"x_max":0,"o":""},"©":{"ha":1063,"x_min":0,"x_max":0,"o":""},"ª":{"ha":1032,"x_min":0,"x_max":0,"o":""},"«":{"ha":1015,"x_min":0,"x_max":0,"o":""},"®":{"ha":1111,"x_min":0,"x_max":0,"o":""},"º":{"ha":1051,"x_min":0,"x_max":0,"o":""},"Ì":{"ha":1103,"x_min":0,"x_max":0,"o":""},"Ï":{"ha":1111,"x_min":0,"x_max":0,"o":""},"Ó":{"ha":1063,"x_min":0,"x_max":0,"o":""},"Ø":{"ha":1042,"x_min":0,"x_max":0,"o":""},"Û":{"ha":1103,"x_min":0,"x_max":0,"o":""},"ø":{"ha":1011,"x_min":0,"x_max":0,"o":""},"ı":{"ha":1051,"x_min":0,"x_max":0,"o":""},"ƒ":{"ha":1051,"x_min":0,"x_max":0,"o":""},"ˆ":{"ha":1063,"x_min":0,"x_max":0,"o":""},"˘":{"ha":1042,"x_min":0,"x_max":0,"o":""},"Δ":{"ha":1063,"x_min":0,"x_max":0,"o":""},"µ":{"ha":1032,"x_min":0,"x_max":0,"o":""},"π":{"ha":1022,"x_min":0,"x_max":0,"o":""},"‚":{"ha":1051,"x_min":0,"x_max":0,"o":""},"‰":{"ha":1143,"x_min":0,"x_max":0,"o":""},"›":{"ha":1063,"x_min":0,"x_max":0,"o":""},"⁄":{"ha":1111,"x_min":0,"x_max":0,"o":""},"™":{"ha":1143,"x_min":0,"x_max":0,"o":""},"∂":{"ha":1111,"x_min":0,"x_max":0,"o":""},"":{"ha":1124,"x_min":0,"x_max":0,"o":""}}}
